<svg id="Capa_1" enable-background="new 0 0 512 512" height="512" viewBox="0 0 512 512" width="512" xmlns="http://www.w3.org/2000/svg"><path d="m31 361h90v136h-90z" fill="#4a696f"/><path d="m76 361h45v136h-45z" fill="#384949"/><path d="m271 181h90v316h-90z" fill="#ffe274"/><path d="m405.099 62.199-61.5-9.3-27.599-52.899-27.599 52.899-61.5 9.3 44.399 43.5-10.201 60.901 54.901-28.5 54.901 28.5-10.201-60.9z" fill="#ffe274"/><path d="m316 181h45v316h-45z" fill="#ffb62a"/><path d="m360.7 105.7 10.201 60.901-54.901-28.501v-138.1l27.599 52.899 61.5 9.3z" fill="#ffb62a"/><path d="m391 241h90v256h-90z" fill="#ff7b4a"/><path d="m151 301h90v196h-90z" fill="#57d9ad"/><path d="m196 301h45v196h-45z" fill="#26bfa6"/><path d="m436 241h45v256h-45z" fill="#ff435b"/><path d="m0 482h512v30h-512z" fill="#4a696f"/><path d="m256 482h256v30h-256z" fill="#384949"/><path d="m0 91h30v30h-30z" fill="#ff7b4a"/><path d="m60 91h121v30h-121z" fill="#384949"/><path d="m0 151h30v30h-30z" fill="#ff7b4a"/><path d="m60 151h121v30h-121z" fill="#384949"/><path d="m0 211h30v30h-30z" fill="#ff7b4a"/><path d="m60 211h121v30h-121z" fill="#384949"/></svg>