<svg id="Layer_1" height="512" viewBox="0 0 512 512" width="512" xmlns="http://www.w3.org/2000/svg" xmlns:xlink="http://www.w3.org/1999/xlink"><linearGradient id="SVGID_1_" gradientUnits="userSpaceOnUse" x1="14.834" x2="497.166" y1="256" y2="256"><stop offset="0" stop-color="#036666"/><stop offset="1" stop-color="#9fd4b0"/></linearGradient><path d="m494.896 250.838-125.782-115.33c-2.045-1.876-5.007-2.365-7.549-1.248-2.541 1.118-4.182 3.632-4.182 6.408v60.241l-336.541 48.161c-3.448.493-6.008 3.446-6.008 6.929 0 3.482 2.561 6.436 6.008 6.93l336.542 48.162v60.241c0 2.776 1.641 5.29 4.182 6.407.906.398 1.865.593 2.817.593 1.719 0 3.415-.633 4.731-1.841l125.782-115.334c1.446-1.325 2.27-3.197 2.27-5.159s-.823-3.833-2.27-5.16z" fill="url(#SVGID_1_)"/></svg>