<svg id="svg8" height="512" viewBox="0 0 24 28.001825" width="512" xmlns="http://www.w3.org/2000/svg" xmlns:xlink="http://www.w3.org/1999/xlink" xmlns:svg="http://www.w3.org/2000/svg"><linearGradient id="linearGradient439318" gradientUnits="userSpaceOnUse" x1="2" x2="29.95" y1="2" y2="29.95"><stop id="stop430917" offset="0" stop-color="#00d8ff"/><stop id="stop430919" offset="1" stop-color="#00f"/></linearGradient><g id="layer2" transform="translate(196 -121.998)"><g id="g43253" fill="url(#linearGradient439318)" transform="translate(-200 120)"><path id="path189408" d="m15.865234 1.9980469c-3.930534-.034108-7.7967612 1.5338663-11.5097652 4.6582031-.2251415.1898096-.3551882.4691955-.3554688.7636719v9.5800781c0 4.565422 3.0338056 7.83832 5.9179688 9.904297 2.8841632 2.065976 5.7578122 3.041016 5.7578122 3.041015.210147.07202.438291.07202.648438 0 0 0 2.873649-.975039 5.757812-3.041015 2.884163-2.065977 5.917969-5.338875 5.917969-9.904297v-9.5800781c-.000454-.3109832-.145548-.6040587-.392578-.7929688-3.889231-2.9752396-7.811653-4.5947985-11.742188-4.6289062zm6.242188 9.2050781c.439246.33534.523219.963387.1875 1.402344l-6.111328 8c-.359275.470545-1.046402.52773-1.478516.123047l-4.8886718-4.570313c-.4036674-.377429-.4246608-1.010728-.046875-1.414062.3774288-.403668 1.0107288-.424661 1.4140628-.046875l4.082031 3.816406 5.439453-7.121094c.362286-.493896.973965-.504685 1.402344-.189453z" fill="url(#linearGradient439318)" stroke-linecap="round" stroke-linejoin="round"/></g></g></svg>