<svg height="512" viewBox="0 0 58 58" width="512" xmlns="http://www.w3.org/2000/svg"><g id="Page-1" fill="none" fill-rule="evenodd"><g id="006---Money-and-Timer" fill-rule="nonzero"><path id="Shape" d="m32 33c.6785531-1.2626033 1.1927298-2.606856 1.53-4h23.47c.5522847 0 1 .4477153 1 1v19c0 .5522847-.4477153 1-1 1h-3" fill="#4c8056"/><path id="Shape" d="m29.04 37c1.1759154-1.1823121 2.1730797-2.5298315 2.96-4h21c.5522847 0 1 .4477153 1 1v19c0 .5522847-.4477153 1-1 1h-3z" fill="#24ae5f"/><path id="Shape" d="m49 37h-19.96-.04c-2.6475639.1264842-5.0311792 1.6426734-6.268 3.987-4.8899049 1.7746092-10.3248021 1.196515-14.732-1.567v17.58c0 .5522847.44771525 1 1 1h40c.5522847 0 1-.4477153 1-1v-19c0-.5522847-.4477153-1-1-1z" fill="#4fba6f"/><g fill="#7ed09e"><path id="Shape" d="m15 58h-6c-.55228475 0-1-.4477153-1-1v-6c3.8659932 0 7 3.1340068 7 7z"/><path id="Shape" d="m50 51v6c0 .5522847-.4477153 1-1 1h-6c0-3.8659932 3.1340068-7 7-7z"/><path id="Shape" d="m50 38v6c-3.8659932 0-7-3.1340068-7-7h6c.5522847 0 1 .4477153 1 1z"/><ellipse id="Oval" cx="29" cy="47.5" rx="8" ry="10.5"/></g><path id="Shape" d="m30 46.573v-3.459c1.211.266 2 .977 2 1.636 0 .5522847.4477153 1 1 1s1-.4477153 1-1c0-1.845-1.691-3.338-4-3.677v-.073c0-.5522847-.4477153-1-1-1s-1 .4477153-1 1v.073c-2.309.339-4 1.832-4 3.677s1.691 3.338 4 3.677v3.459c-1.211-.266-2-.977-2-1.636 0-.5522847-.4477153-1-1-1s-1 .4477153-1 1c0 1.845 1.691 3.338 4 3.677v.073c0 .5522847.4477153 1 1 1s1-.4477153 1-1v-.073c2.309-.339 4-1.832 4-3.677s-1.691-3.338-4-3.677zm-4-1.823c0-.659.789-1.37 2-1.636v3.272c-1.211-.266-2-.977-2-1.636zm4 7.136v-3.272c1.211.266 2 .977 2 1.636s-.789 1.37-2 1.636z" fill="#24ae5f"/><path id="Shape" d="m19 8.12c-1.3285335-.15999679-2.6714665-.15999679-4 0-3.3145774.38496395-6.44009985 1.74585401-8.98 3.91l.01.01c-4.7618981 4.0328665-6.92963485 10.3516998-5.64623499 16.4584641 1.28339986 6.1067644 5.81134267 11.0184312 11.79378869 12.7932623 5.982446 1.7748312 12.4563786.1271256 16.8624463-4.2917264 1.1759154-1.1823121 2.1730797-2.5298315 2.96-4 .6785531-1.2626033 1.1927298-2.606856 1.53-4 1.1339333-4.7255787.1947288-9.7104942-2.5811016-13.699437-2.7758304-3.9889427-7.1237645-6.60178733-11.9488984-7.180563zm-2 29.88c-7.17970175 0-13-5.8202983-13-13s5.82029825-13 13-13c7.1797017 0 13 5.8202983 13 13-.0066157 7.1769596-5.8230404 12.9933843-13 13z" fill="#3b97d3"/><circle id="Oval" cx="17" cy="25" fill="#fff" r="13"/><path id="Shape" d="m17 39c-7.7319865 0-14-6.2680135-14-14s6.2680135-14 14-14 14 6.2680135 14 14c-.0082673 7.7285595-6.2714405 13.9917327-14 14zm0-26c-6.627417 0-12 5.372583-12 12s5.372583 12 12 12 12-5.372583 12-12c-.0071648-6.624447-5.375553-11.9928352-12-12z" fill="#bdc3c7"/><path id="Rectangle-path" d="m28.402 10.49h4.215v2h-4.215z" fill="#7f8284" transform="matrix(.707 -.707 .707 .707 .811 24.939)"/><path id="Shape" d="m34 13c-.2651948-.0000566-.5195073-.1054506-.707-.293l-4-4c-.3789722-.39237889-.3735524-1.01608478.0121814-1.40181858.3857338-.38573379 1.0094397-.39115363 1.4018186-.01218142l4 4c.2859079.2859943.3714219.7160366.216678 1.0896546-.1547439.3736179-.5192821.6172591-.923678.6173454z" fill="#cc4b4c"/><path id="Shape" d="m18.41 24.59c-.4043959-.0000863-.7689341-.2437275-.923678-.6173454-.1547439-.373618-.0692299-.8036603.216678-1.0896546l4.59-4.59c.3923789-.3789722 1.0160848-.3735524 1.4018186.0121814s.3911536 1.0094397.0121814 1.4018186l-4.59 4.59c-.1874927.1875494-.4418052.2929434-.707.293z" fill="#cc4b4c"/><circle id="Oval" cx="17" cy="25" fill="#7f8284" r="2"/><path id="Shape" d="m22 2c.0028231.53059053-.2101411 1.0395388-.59 1.41-.3704612.3798589-.8794095.59282307-1.41.59h-6c-1.1032019-.0032948-1.9967052-.89679813-2-2-.0028231-.53059053.2101411-1.0395388.59-1.41.3704612-.3798589.8794095-.59282307 1.41-.59h6c1.1032019.0032948 1.9967052.89679813 2 2z" fill="#3b97d3"/><path id="Shape" d="m19 4v4.12c-1.3285335-.15999679-2.6714665-.15999679-4 0v-4.12z" fill="#2980ba"/></g></g></svg>